<svg width="68" height="68" viewBox="0 0 68 68" fill="none" xmlns="http://www.w3.org/2000/svg">
<g clip-path="url(#clip0_406_16)">
<g clip-path="url(#clip1_406_16)">
<path d="M17.3451 7.756C19.1691 7.756 20.4891 8.452 21.2571 9.844C21.8091 9.076 22.4091 8.524 23.0331 8.212C23.6091 7.9 24.3051 7.756 25.1451 7.756C26.4171 7.756 27.4731 8.164 28.3131 9.028C29.1291 9.868 29.5611 10.972 29.5611 12.364V20.5H27.0171V12.796C27.0171 11.788 26.8011 11.044 26.3691 10.588C25.9371 10.108 25.2171 9.892 24.2571 9.892C23.5371 9.892 22.9611 10.156 22.4811 10.684C22.0011 11.212 21.7611 11.956 21.7611 12.868V20.5H19.2171V12.82C19.2171 10.852 18.3531 9.892 16.6731 9.892C15.8571 9.892 15.1851 10.204 14.7051 10.828C14.1771 11.428 13.9371 12.172 13.9371 13.036V20.5H11.3931V8.092H13.9371V9.46C14.9451 8.308 16.0971 7.756 17.3451 7.756ZM38.032 7.756C39.856 7.756 41.2 8.212 42.064 9.124C42.808 9.916 43.192 11.068 43.192 12.58V20.5H40.84V18.748C40.36 19.372 39.76 19.876 39.04 20.236C38.224 20.62 37.264 20.836 36.16 20.836C34.864 20.836 33.856 20.5 33.136 19.852C32.344 19.204 31.96 18.364 31.96 17.332C31.96 15.94 32.512 14.86 33.616 14.116C34.624 13.396 36.064 13.036 37.888 12.988L40.672 12.916V12.412C40.672 10.684 39.736 9.82 37.864 9.82C37.072 9.82 36.424 9.964 35.944 10.252C35.368 10.588 35.008 11.092 34.864 11.788L32.344 11.572C32.608 10.228 33.28 9.22 34.336 8.596C35.248 8.02 36.496 7.756 38.032 7.756ZM40.672 14.764L38.056 14.836C35.728 14.884 34.576 15.7 34.576 17.236C34.576 17.716 34.768 18.1 35.176 18.412C35.56 18.724 36.088 18.892 36.736 18.892C37.816 18.892 38.728 18.556 39.496 17.908C40.264 17.26 40.672 16.444 40.672 15.484V14.764ZM51.6241 7.756C53.2081 7.756 54.4801 8.116 55.4401 8.836C56.4001 9.604 57.0241 10.756 57.2641 12.292H54.7441C54.5761 11.452 54.2401 10.828 53.7121 10.444C53.1841 10.036 52.4881 9.844 51.6241 9.844C50.5681 9.844 49.7521 10.228 49.1521 11.02C48.5281 11.788 48.2401 12.892 48.2401 14.284C48.2401 15.676 48.5281 16.78 49.1281 17.572C49.6801 18.34 50.4961 18.748 51.6001 18.748C53.4961 18.748 54.5521 17.788 54.7921 15.916H57.3121C57.0241 17.572 56.3761 18.82 55.4161 19.636C54.4561 20.428 53.1601 20.836 51.5761 20.836C49.6801 20.836 48.2161 20.212 47.1601 18.964C46.1281 17.764 45.6241 16.228 45.6241 14.308C45.6241 12.436 46.1281 10.9 47.1361 9.7C48.2161 8.404 49.7041 7.756 51.6241 7.756Z" fill="white"/>
<path d="M19.8152 25.74C24.5852 25.74 28.4102 27.315 31.2002 30.555C33.8102 33.615 35.1602 37.575 35.1602 42.48C35.1602 47.34 33.8102 51.255 31.2002 54.315C28.4102 57.51 24.5852 59.13 19.7702 59.13C14.9552 59.13 11.1752 57.51 8.38516 54.315C5.73016 51.255 4.42516 47.295 4.42516 42.48C4.42516 37.62 5.73016 33.66 8.38516 30.6C11.1752 27.36 14.9552 25.74 19.8152 25.74ZM19.8152 29.025C16.1252 29.025 13.2002 30.285 11.0852 32.85C9.10516 35.28 8.11516 38.475 8.11516 42.48C8.11516 46.44 9.10516 49.635 11.0852 52.065C13.1552 54.585 16.0802 55.845 19.7702 55.845C23.4602 55.845 26.3852 54.585 28.4552 52.155C30.4352 49.725 31.4702 46.53 31.4702 42.48C31.4702 38.385 30.4352 35.145 28.4552 32.715C26.3852 30.24 23.5052 29.025 19.8152 29.025ZM51.0722 25.74C54.6722 25.74 57.5522 26.55 59.6222 28.215C61.7822 29.925 62.9972 32.49 63.3122 35.865H59.6672C59.2622 33.525 58.3622 31.815 56.9672 30.69C55.5272 29.52 53.5022 28.98 50.8922 28.98C48.5072 28.98 46.6622 29.34 45.3122 30.15C43.7822 31.05 43.0172 32.4 43.0172 34.245C43.0172 35.865 43.9172 37.17 45.7622 38.16C46.5722 38.61 48.5522 39.285 51.6572 40.185C55.8872 41.445 58.6772 42.48 60.0272 43.29C62.6822 44.91 64.0322 47.16 64.0322 50.085C64.0322 52.875 62.9072 55.125 60.6572 56.745C58.4072 58.32 55.3922 59.13 51.5672 59.13C47.7872 59.13 44.8172 58.32 42.6572 56.7C40.1372 54.765 38.7422 51.84 38.4722 47.88H42.1172C42.4322 50.67 43.4222 52.74 45.0422 54.045C46.5272 55.215 48.6872 55.845 51.5672 55.845C54.1772 55.845 56.3372 55.35 57.9572 54.36C59.5772 53.37 60.3872 52.02 60.3872 50.31C60.3872 48.285 59.3072 46.71 57.1922 45.585C56.2922 45.045 53.9972 44.28 50.3972 43.245C46.5272 42.075 44.0522 41.175 43.0172 40.635C40.5422 39.195 39.3272 37.125 39.3272 34.425C39.3272 31.635 40.4972 29.43 42.8822 27.9C44.9972 26.46 47.7422 25.74 51.0722 25.74Z" fill="white"/>
</g>
</g>
<defs>
<clipPath id="clip0_406_16">
<rect width="68" height="68" fill="white"/>
</clipPath>
<clipPath id="clip1_406_16">
<rect width="68" height="68" fill="white"/>
</clipPath>
</defs>
</svg>
